<?xml version="1.0" standalone="no"?>
<!DOCTYPE svg PUBLIC "-//W3C//DTD SVG 20010904//EN"
 "http://www.w3.org/TR/2001/REC-SVG-20010904/DTD/svg10.dtd">
<svg version="1.0" xmlns="http://www.w3.org/2000/svg"
 width="606.000000pt" height="256.000000pt" viewBox="0 0 606.000000 256.000000"
 preserveAspectRatio="xMidYMid meet">

<g transform="translate(0.000000,256.000000) scale(0.100000,-0.100000)"
fill="#000000" stroke="none">
<path d="M5083 2102 l-223 -2 0 -144 0 -143 -31 -7 c-157 -31 -157 -271 0
-302 l31 -6 0 -74 0 -74 -75 0 -75 0 0 -155 0 -155 75 0 75 0 0 -79 0 -79 -61
-11 c-90 -15 -90 -16 -87 -140 l3 -106 30 -14 c41 -21 200 -21 240 -1 l30 15
3 106 c3 124 3 125 -87 141 l-61 12 0 78 0 78 75 0 75 0 0 155 0 155 -75 0
-75 0 0 74 0 74 31 6 c157 31 157 271 0 302 l-31 7 0 138 0 139 220 0 220 0 0
-139 0 -138 -31 -7 c-69 -13 -119 -77 -119 -151 0 -74 50 -138 119 -151 l31
-6 0 -74 0 -74 -75 0 -75 0 0 -155 0 -155 75 0 75 0 0 -79 0 -79 -61 -11 c-90
-15 -90 -16 -87 -140 l3 -106 30 -14 c41 -21 200 -21 240 -1 l30 15 3 106 c3
124 3 125 -87 141 l-61 12 0 78 0 78 75 0 75 0 0 155 0 155 -75 0 -75 0 0 74
0 74 31 6 c157 31 157 271 0 302 l-31 7 0 138 0 139 220 0 220 0 0 -139 0
-138 -31 -7 c-69 -13 -119 -77 -119 -151 0 -74 50 -138 119 -151 l31 -6 0 -74
0 -74 -75 0 -75 0 0 -155 0 -155 75 0 75 0 0 -79 0 -79 -61 -11 c-90 -15 -90
-16 -87 -140 l3 -106 30 -14 c41 -21 200 -21 240 -1 l30 15 3 106 c3 124 3
125 -87 141 l-61 12 0 78 0 78 75 0 75 0 0 155 0 155 -75 0 -75 0 0 74 0 74
31 6 c157 31 157 271 0 302 l-31 7 0 143 0 143 -232 3 c-128 2 -333 2 -455 0z
m-153 -324 c36 -18 49 -32 64 -70 17 -41 18 -52 7 -89 -45 -149 -248 -136
-277 17 -4 21 1 47 15 78 16 37 29 51 63 66 55 25 74 25 128 -2z m450 0 c36
-18 49 -32 64 -70 17 -41 18 -52 7 -89 -45 -149 -248 -136 -277 17 -4 21 1 47
15 78 16 37 29 51 63 66 55 25 74 25 128 -2z m450 0 c36 -18 49 -32 64 -70 17
-41 18 -52 7 -89 -45 -149 -248 -136 -277 17 -4 21 1 47 15 78 16 37 29 51 63
66 55 25 74 25 128 -2z m-820 -583 l0 -145 -145 0 -145 0 0 145 0 145 145 0
145 0 0 -145z m450 0 l0 -145 -145 0 -145 0 0 145 0 145 145 0 145 0 0 -145z
m450 0 l0 -144 -145 0 -145 0 0 144 0 145 145 0 145 0 0 -145z m-935 -349 c19
-8 35 -18 35 -21 0 -16 -77 -35 -145 -35 -68 0 -145 19 -145 35 0 32 192 47
255 21z m450 0 c19 -8 35 -18 35 -21 0 -16 -77 -35 -145 -35 -68 0 -145 19
-145 35 0 32 192 47 255 21z m450 0 c19 -8 35 -18 35 -21 0 -16 -77 -35 -145
-35 -68 0 -145 19 -145 35 0 32 192 47 255 21z m-1037 -72 c44 -3 85 0 120 9
l52 14 0 -79 0 -79 -35 -15 c-45 -18 -175 -18 -220 0 l-35 15 0 80 0 81 26
-10 c14 -6 55 -13 92 -16z m450 0 c44 -3 85 0 120 9 l52 14 0 -79 0 -79 -35
-15 c-45 -18 -175 -18 -220 0 l-35 15 0 80 0 81 26 -10 c14 -6 55 -13 92 -16z
m450 0 c44 -3 85 0 120 9 l52 14 0 -79 0 -79 -35 -15 c-45 -18 -175 -18 -220
0 l-35 15 0 80 0 81 26 -10 c14 -6 55 -13 92 -16z"/>
<path d="M4840 1650 l0 -39 26 24 c29 27 26 55 -6 55 -17 0 -20 -6 -20 -40z
m35 10 c-3 -5 -10 -10 -16 -10 -5 0 -9 5 -9 10 0 6 7 10 16 10 8 0 12 -4 9
-10z"/>
<path d="M5290 1650 l0 -39 26 24 c29 27 26 55 -6 55 -17 0 -20 -6 -20 -40z
m35 10 c-3 -5 -10 -10 -16 -10 -5 0 -9 5 -9 10 0 6 7 10 16 10 8 0 12 -4 9
-10z"/>
<path d="M5740 1650 l0 -39 26 24 c29 27 26 55 -6 55 -17 0 -20 -6 -20 -40z
m35 10 c-3 -5 -10 -10 -16 -10 -5 0 -9 5 -9 10 0 6 7 10 16 10 8 0 12 -4 9
-10z"/>
<path d="M4767 1224 c-11 -11 -8 -74 3 -74 6 0 10 7 10 16 0 8 4 13 9 10 5 -4
12 0 14 6 3 7 6 3 6 -9 1 -13 6 -23 12 -23 6 0 8 7 5 16 -3 9 -6 27 -6 40 0
13 -4 24 -10 24 -5 0 -10 -8 -10 -17 0 -16 -1 -15 -13 1 -7 9 -16 14 -20 10z"/>
<path d="M4841 1197 c-18 -22 -3 -47 28 -46 l26 1 -25 8 c-25 8 -25 8 -2 9 17
1 22 6 20 18 -4 23 -31 28 -47 10z"/>
<path d="M4900 1180 c0 -38 20 -40 21 -2 l1 27 8 -30 8 -30 2 30 2 30 8 -30 8
-30 1 33 c1 29 -2 32 -29 32 -27 0 -30 -3 -30 -30z"/>
<path d="M5217 1224 c-11 -11 -8 -74 3 -74 6 0 10 7 10 16 0 8 4 13 9 10 5 -4
12 0 14 6 3 7 6 3 6 -9 1 -13 6 -23 12 -23 6 0 8 7 5 16 -3 9 -6 27 -6 40 0
13 -4 24 -10 24 -5 0 -10 -8 -10 -17 0 -16 -1 -15 -13 1 -7 9 -16 14 -20 10z"/>
<path d="M5291 1197 c-18 -22 -3 -47 28 -46 l26 1 -25 8 c-25 8 -25 8 -2 9 17
1 22 6 20 18 -4 23 -31 28 -47 10z"/>
<path d="M5350 1180 c0 -38 20 -40 21 -2 l1 27 8 -30 8 -30 2 30 2 30 8 -30 8
-30 1 33 c1 29 -2 32 -29 32 -27 0 -30 -3 -30 -30z"/>
<path d="M5667 1224 c-11 -11 -8 -74 3 -74 6 0 10 7 10 16 0 8 4 13 9 10 5 -4
12 0 14 6 3 7 6 3 6 -9 1 -13 6 -23 12 -23 6 0 8 7 5 16 -3 9 -6 27 -6 40 0
13 -4 24 -10 24 -5 0 -10 -8 -10 -17 0 -16 -1 -15 -13 1 -7 9 -16 14 -20 10z"/>
<path d="M5741 1197 c-18 -22 -3 -47 28 -46 l26 1 -25 8 c-25 8 -25 8 -2 9 17
1 22 6 20 18 -4 23 -31 28 -47 10z"/>
<path d="M5800 1180 c0 -38 20 -40 21 -2 l1 27 8 -30 8 -30 2 30 2 30 8 -30 8
-30 1 33 c1 29 -2 32 -29 32 -27 0 -30 -3 -30 -30z"/>
<path d="M742 2073 c-61 -30 -92 -100 -78 -178 9 -46 65 -102 111 -111 l35 -6
0 -144 0 -144 -150 0 -150 0 0 -155 0 -155 150 0 150 0 0 -149 0 -149 -61 -11
c-90 -15 -90 -16 -87 -140 l3 -106 30 -14 c41 -21 200 -21 240 -1 l30 15 3
106 c3 124 3 125 -87 141 l-61 12 0 148 0 148 220 0 220 0 0 -149 0 -149 -61
-11 c-90 -15 -90 -16 -87 -140 l3 -106 30 -14 c41 -21 200 -21 240 -1 l30 15
3 106 c3 124 3 125 -87 141 l-61 12 0 148 0 148 220 0 220 0 0 -149 0 -149
-61 -11 c-90 -15 -90 -16 -87 -140 l3 -106 30 -14 c41 -21 200 -21 240 -1 l30
15 3 106 c3 124 3 125 -87 141 l-61 12 0 148 0 148 150 0 150 0 0 155 0 155
-150 0 -150 0 0 144 0 144 35 6 c74 14 125 98 112 182 -27 164 -277 164 -304
0 -13 -84 38 -168 112 -182 l35 -6 0 -144 0 -144 -220 0 -220 0 0 144 0 144
35 6 c74 14 125 98 112 182 -27 164 -277 164 -304 0 -13 -84 38 -168 112 -182
l35 -6 0 -144 0 -144 -220 0 -220 0 0 144 0 144 35 6 c74 14 125 98 112 182
-16 99 -131 154 -225 107z m138 -15 c36 -18 49 -32 64 -70 17 -41 18 -52 7
-89 -45 -149 -248 -136 -277 17 -4 21 1 47 15 78 16 37 29 51 63 66 55 25 74
25 128 -2z m450 0 c36 -18 49 -32 64 -70 17 -41 18 -52 7 -89 -45 -149 -248
-136 -277 17 -4 21 1 47 15 78 16 37 29 51 63 66 55 25 74 25 128 -2z m450 0
c36 -18 49 -32 64 -70 17 -41 18 -52 7 -89 -45 -149 -248 -136 -277 17 -4 21
1 47 15 78 16 37 29 51 63 66 55 25 74 25 128 -2z m230 -723 l0 -145 -745 0
-745 0 0 145 0 145 745 0 745 0 0 -145z m-1085 -489 c19 -8 35 -18 35 -21 0
-16 -77 -35 -145 -35 -68 0 -145 19 -145 35 0 32 192 47 255 21z m450 0 c19
-8 35 -18 35 -21 0 -16 -77 -35 -145 -35 -68 0 -145 19 -145 35 0 32 192 47
255 21z m450 0 c19 -8 35 -18 35 -21 0 -16 -77 -35 -145 -35 -68 0 -145 19
-145 35 0 32 192 47 255 21z m-1037 -72 c44 -3 85 0 120 9 l52 14 0 -79 0 -79
-35 -15 c-45 -18 -175 -18 -220 0 l-35 15 0 80 0 81 26 -10 c14 -6 55 -13 92
-16z m450 0 c44 -3 85 0 120 9 l52 14 0 -79 0 -79 -35 -15 c-45 -18 -175 -18
-220 0 l-35 15 0 80 0 81 26 -10 c14 -6 55 -13 92 -16z m450 0 c44 -3 85 0
120 9 l52 14 0 -79 0 -79 -35 -15 c-45 -18 -175 -18 -220 0 l-35 15 0 80 0 81
26 -10 c14 -6 55 -13 92 -16z"/>
<path d="M790 1930 l0 -39 26 24 c29 27 26 55 -6 55 -17 0 -20 -6 -20 -40z
m35 10 c-3 -5 -10 -10 -16 -10 -5 0 -9 5 -9 10 0 6 7 10 16 10 8 0 12 -4 9
-10z"/>
<path d="M1240 1930 l0 -39 26 24 c29 27 26 55 -6 55 -17 0 -20 -6 -20 -40z
m35 10 c-3 -5 -10 -10 -16 -10 -5 0 -9 5 -9 10 0 6 7 10 16 10 8 0 12 -4 9
-10z"/>
<path d="M1690 1930 l0 -39 26 24 c29 27 26 55 -6 55 -17 0 -20 -6 -20 -40z
m35 10 c-3 -5 -10 -10 -16 -10 -5 0 -9 5 -9 10 0 6 7 10 16 10 8 0 12 -4 9
-10z"/>
<path d="M1060 1320 c0 -38 20 -40 21 -2 l1 27 8 -30 8 -30 2 30 2 30 8 -30 8
-30 1 33 c1 29 -2 32 -29 32 -27 0 -30 -3 -30 -30z"/>
<path d="M1141 1337 c-18 -22 -3 -47 28 -46 l26 1 -25 8 c-25 8 -25 8 -2 9 17
1 22 6 20 18 -4 23 -31 28 -47 10z"/>
<path d="M1200 1320 c0 -38 20 -40 21 -2 l1 27 8 -30 8 -30 2 30 2 30 8 -30 8
-30 1 33 c1 29 -2 32 -29 32 -27 0 -30 -3 -30 -30z"/>
<path d="M1277 1336 c-10 -26 4 -47 27 -44 15 2 21 10 21 28 0 29 -38 41 -48
16z m38 -16 c0 -7 -6 -15 -12 -17 -8 -3 -13 4 -13 17 0 13 5 20 13 18 6 -3 12
-11 12 -18z"/>
<path d="M1350 1318 c0 -15 5 -28 10 -28 6 0 10 11 10 25 0 26 15 34 23 13 3
-8 6 -6 6 4 1 13 -6 17 -24 16 -20 -2 -25 -8 -25 -30z"/>
<path d="M1423 1320 c9 -25 9 -33 -2 -39 -9 -6 -10 -11 -3 -15 12 -7 36 25 47
63 5 16 4 21 -4 17 -6 -4 -11 -15 -12 -24 0 -13 -3 -12 -11 6 -16 33 -28 27
-15 -8z"/>
<path d="M2692 2073 c-61 -30 -92 -100 -78 -178 9 -46 65 -102 111 -111 l35
-6 0 -114 0 -114 -75 0 -75 0 0 -155 0 -155 75 0 75 0 0 -179 0 -179 -61 -11
c-90 -15 -90 -16 -87 -140 l3 -106 30 -14 c41 -21 200 -21 240 -1 l30 15 3
106 c3 124 3 125 -87 141 l-61 12 0 53 0 53 220 0 220 0 0 -54 0 -54 -61 -11
c-90 -15 -90 -16 -87 -140 l3 -106 30 -14 c41 -21 200 -21 240 -1 l30 15 3
106 c3 124 3 125 -87 141 l-61 12 0 53 0 53 220 0 220 0 0 -54 0 -54 -61 -11
c-90 -15 -90 -16 -87 -140 l3 -106 30 -14 c41 -21 200 -21 240 -1 l30 15 3
106 c3 124 3 125 -87 141 l-61 12 0 178 0 178 75 0 75 0 0 155 0 155 -75 0
-75 0 0 114 0 114 35 6 c74 14 125 98 112 182 -27 164 -277 164 -304 0 -13
-84 38 -168 112 -182 l35 -6 0 -114 0 -114 -75 0 -75 0 0 -155 0 -155 75 0 75
0 0 -120 0 -120 -220 0 -220 0 0 120 0 120 75 0 75 0 0 155 0 155 -75 0 -75 0
0 114 0 114 35 6 c74 14 125 98 112 182 -27 164 -277 164 -304 0 -13 -84 38
-168 112 -182 l35 -6 0 -114 0 -114 -75 0 -75 0 0 -155 0 -155 75 0 75 0 0
-120 0 -120 -220 0 -220 0 0 120 0 120 75 0 75 0 0 155 0 155 -75 0 -75 0 0
114 0 114 35 6 c74 14 125 98 112 182 -16 99 -131 154 -225 107z m138 -15 c36
-18 49 -32 64 -70 17 -41 18 -52 7 -89 -45 -149 -248 -136 -277 17 -4 21 1 47
15 78 16 37 29 51 63 66 55 25 74 25 128 -2z m450 0 c36 -18 49 -32 64 -70 17
-41 18 -52 7 -89 -45 -149 -248 -136 -277 17 -4 21 1 47 15 78 16 37 29 51 63
66 55 25 74 25 128 -2z m450 0 c36 -18 49 -32 64 -70 17 -41 18 -52 7 -89 -45
-149 -248 -136 -277 17 -4 21 1 47 15 78 16 37 29 51 63 66 55 25 74 25 128
-2z m-820 -663 l0 -145 -145 0 -145 0 0 145 0 145 145 0 145 0 0 -145z m450 0
l0 -145 -145 0 -145 0 0 145 0 145 145 0 145 0 0 -145z m450 0 l0 -144 -145 0
-145 0 0 144 0 145 145 0 145 0 0 -145z m-935 -549 c19 -8 35 -18 35 -21 0
-16 -77 -35 -145 -35 -68 0 -145 19 -145 35 0 32 192 47 255 21z m450 0 c19
-8 35 -18 35 -21 0 -16 -77 -35 -145 -35 -68 0 -145 19 -145 35 0 32 192 47
255 21z m450 0 c19 -8 35 -18 35 -21 0 -16 -77 -35 -145 -35 -68 0 -145 19
-145 35 0 32 192 47 255 21z m-1037 -72 c44 -3 85 0 120 9 l52 14 0 -79 0 -79
-35 -15 c-45 -18 -175 -18 -220 0 l-35 15 0 80 0 81 26 -10 c14 -6 55 -13 92
-16z m450 0 c44 -3 85 0 120 9 l52 14 0 -79 0 -79 -35 -15 c-45 -18 -175 -18
-220 0 l-35 15 0 80 0 81 26 -10 c14 -6 55 -13 92 -16z m450 0 c44 -3 85 0
120 9 l52 14 0 -79 0 -79 -35 -15 c-45 -18 -175 -18 -220 0 l-35 15 0 80 0 81
26 -10 c14 -6 55 -13 92 -16z"/>
<path d="M2740 1930 l0 -39 26 24 c29 27 26 55 -6 55 -17 0 -20 -6 -20 -40z
m35 10 c-3 -5 -10 -10 -16 -10 -5 0 -9 5 -9 10 0 6 7 10 16 10 8 0 12 -4 9
-10z"/>
<path d="M3190 1930 l0 -39 26 24 c29 27 26 55 -6 55 -17 0 -20 -6 -20 -40z
m35 10 c-3 -5 -10 -10 -16 -10 -5 0 -9 5 -9 10 0 6 7 10 16 10 8 0 12 -4 9
-10z"/>
<path d="M3640 1930 l0 -39 26 24 c29 27 26 55 -6 55 -17 0 -20 -6 -20 -40z
m35 10 c-3 -5 -10 -10 -16 -10 -5 0 -9 5 -9 10 0 6 7 10 16 10 8 0 12 -4 9
-10z"/>
<path d="M2667 1424 c-11 -11 -8 -74 3 -74 6 0 10 7 10 16 0 8 4 13 9 10 5 -4
12 0 14 6 3 7 6 3 6 -9 1 -13 6 -23 12 -23 6 0 8 7 5 16 -3 9 -6 27 -6 40 0
13 -4 24 -10 24 -5 0 -10 -8 -10 -17 0 -16 -1 -15 -13 1 -7 9 -16 14 -20 10z"/>
<path d="M2741 1397 c-18 -22 -3 -47 28 -46 l26 1 -25 8 c-25 8 -25 8 -2 9 17
1 22 6 20 18 -4 23 -31 28 -47 10z"/>
<path d="M2800 1380 c0 -38 20 -40 21 -2 l1 27 8 -30 8 -30 2 30 2 30 8 -30 8
-30 1 33 c1 29 -2 32 -29 32 -27 0 -30 -3 -30 -30z"/>
<path d="M3117 1424 c-11 -11 -8 -74 3 -74 6 0 10 7 10 16 0 8 4 13 9 10 5 -4
12 0 14 6 3 7 6 3 6 -9 1 -13 6 -23 12 -23 6 0 8 7 5 16 -3 9 -6 27 -6 40 0
13 -4 24 -10 24 -5 0 -10 -8 -10 -17 0 -16 -1 -15 -13 1 -7 9 -16 14 -20 10z"/>
<path d="M3191 1397 c-18 -22 -3 -47 28 -46 l26 1 -25 8 c-25 8 -25 8 -2 9 17
1 22 6 20 18 -4 23 -31 28 -47 10z"/>
<path d="M3250 1380 c0 -38 20 -40 21 -2 l1 27 8 -30 8 -30 2 30 2 30 8 -30 8
-30 1 33 c1 29 -2 32 -29 32 -27 0 -30 -3 -30 -30z"/>
<path d="M3567 1424 c-11 -11 -8 -74 3 -74 6 0 10 7 10 16 0 8 4 13 9 10 5 -4
12 0 14 6 3 7 6 3 6 -9 1 -13 6 -23 12 -23 6 0 8 7 5 16 -3 9 -6 27 -6 40 0
13 -4 24 -10 24 -5 0 -10 -8 -10 -17 0 -16 -1 -15 -13 1 -7 9 -16 14 -20 10z"/>
<path d="M3641 1397 c-18 -22 -3 -47 28 -46 l26 1 -25 8 c-25 8 -25 8 -2 9 17
1 22 6 20 18 -4 23 -31 28 -47 10z"/>
<path d="M3700 1380 c0 -38 20 -40 21 -2 l1 27 8 -30 8 -30 2 30 2 30 8 -30 8
-30 1 33 c1 29 -2 32 -29 32 -27 0 -30 -3 -30 -30z"/>
<path d="M4145 1990 c0 -36 2 -40 25 -39 14 0 19 3 13 6 -16 6 -17 45 -1 61 9
9 7 12 -12 12 -22 0 -25 -4 -25 -40z"/>
<path d="M4282 2014 c-7 -8 -8 -14 -2 -14 5 0 10 -11 10 -25 0 -20 5 -25 23
-24 16 1 18 2 5 6 -10 2 -18 13 -18 24 0 11 7 19 18 20 13 0 14 2 2 6 -8 3
-17 9 -20 13 -3 4 -11 2 -18 -6z"/>
<path d="M4211 1978 c1 -21 3 -26 6 -13 8 34 23 41 23 12 0 -15 5 -27 11 -27
6 0 9 12 7 28 -2 19 -9 28 -25 30 -20 3 -23 -1 -22 -30z"/>
<path d="M4351 1997 c-18 -22 -3 -47 28 -46 l26 1 -25 8 c-25 8 -25 8 -2 9 17
1 22 6 20 18 -4 23 -31 28 -47 10z"/>
<path d="M4420 1978 c0 -15 5 -28 10 -28 6 0 10 11 10 25 0 26 15 34 23 13 3
-8 6 -6 6 4 1 13 -6 17 -24 16 -20 -2 -25 -8 -25 -30z"/>
<path d="M4500 1980 c0 -5 7 -10 15 -10 8 0 15 5 15 10 0 6 -7 10 -15 10 -8 0
-15 -4 -15 -10z"/>
<path d="M4402 1854 c-7 -8 -8 -14 -2 -14 5 0 10 -11 10 -25 0 -20 5 -25 23
-24 16 1 18 2 5 6 -10 2 -18 13 -18 24 0 11 7 19 18 20 13 0 14 2 2 6 -8 3
-17 9 -20 13 -3 4 -11 2 -18 -6z"/>
<path d="M3984 1835 c-10 -24 4 -45 28 -44 l23 0 -22 9 c-13 5 -23 14 -23 20
0 6 10 15 23 20 l22 9 -23 0 c-12 1 -25 -6 -28 -14z"/>
<path d="M4047 1836 c-10 -26 4 -47 27 -44 15 2 21 10 21 28 0 29 -38 41 -48
16z m38 -16 c0 -7 -6 -15 -12 -17 -8 -3 -13 4 -13 17 0 13 5 20 13 18 6 -3 12
-11 12 -18z"/>
<path d="M4121 1818 c1 -21 3 -26 6 -13 8 34 23 41 23 12 0 -15 5 -27 11 -27
6 0 9 12 7 28 -2 19 -9 28 -25 30 -20 3 -23 -1 -22 -30z"/>
<path d="M4191 1818 c1 -21 3 -26 6 -13 8 34 23 41 23 12 0 -15 5 -27 11 -27
6 0 9 12 7 28 -2 19 -9 28 -25 30 -20 3 -23 -1 -22 -30z"/>
<path d="M4261 1837 c-18 -22 -3 -47 28 -46 l26 1 -25 8 c-25 8 -25 8 -2 9 17
1 22 6 20 18 -4 23 -31 28 -47 10z"/>
<path d="M4334 1835 c-10 -24 4 -45 28 -44 l23 0 -22 9 c-13 5 -23 14 -23 20
0 6 10 15 23 20 l22 9 -23 0 c-12 1 -25 -6 -28 -14z"/>
<path d="M4478 1843 c6 -2 12 -13 12 -23 0 -10 -6 -21 -12 -23 -7 -3 1 -5 17
-5 17 0 24 2 18 5 -7 2 -13 16 -13 29 0 16 -5 24 -17 23 -11 0 -13 -3 -5 -6z"/>
<path d="M4537 1836 c-10 -26 4 -47 27 -44 15 2 21 10 21 28 0 29 -38 41 -48
16z m38 -16 c0 -7 -6 -15 -12 -17 -8 -3 -13 4 -13 17 0 13 5 20 13 18 6 -3 12
-11 12 -18z"/>
<path d="M4611 1818 c1 -21 3 -26 6 -13 8 34 23 41 23 12 0 -15 5 -27 11 -27
6 0 9 12 7 28 -2 19 -9 28 -25 30 -20 3 -23 -1 -22 -30z"/>
<path d="M4684 1839 c-4 -7 1 -16 12 -22 17 -10 17 -11 -1 -18 -19 -7 -19 -8
2 -8 29 -1 40 19 18 31 -14 8 -15 12 -4 19 11 7 11 9 -3 9 -9 0 -20 -5 -24
-11z"/>
<path d="M3925 1100 c0 -36 2 -40 25 -39 14 0 19 3 13 6 -16 6 -17 45 -1 61 9
9 7 12 -12 12 -22 0 -25 -4 -25 -40z"/>
<path d="M4062 1124 c-7 -8 -8 -14 -2 -14 5 0 10 -11 10 -25 0 -20 5 -25 23
-24 16 1 18 2 5 6 -10 2 -18 13 -18 24 0 11 7 19 18 20 13 0 14 2 2 6 -8 3
-17 9 -20 13 -3 4 -11 2 -18 -6z"/>
<path d="M3991 1088 c1 -21 3 -26 6 -13 8 34 23 41 23 12 0 -15 5 -27 11 -27
6 0 9 12 7 28 -2 19 -9 28 -25 30 -20 3 -23 -1 -22 -30z"/>
<path d="M4131 1107 c-18 -22 -3 -47 28 -46 l26 1 -25 8 c-25 8 -25 8 -2 9 17
1 22 6 20 18 -4 23 -31 28 -47 10z"/>
<path d="M4200 1088 c0 -15 5 -28 10 -28 6 0 10 11 10 25 0 26 15 34 23 13 3
-8 6 -6 6 4 1 13 -6 17 -24 16 -20 -2 -25 -8 -25 -30z"/>
<path d="M4280 1090 c0 -5 7 -10 15 -10 8 0 15 5 15 10 0 6 -7 10 -15 10 -8 0
-15 -4 -15 -10z"/>
<path d="M4182 964 c-7 -8 -8 -14 -2 -14 5 0 10 -11 10 -25 0 -20 5 -25 23
-24 16 1 18 2 5 6 -10 2 -18 13 -18 24 0 11 7 19 18 20 13 0 14 2 2 6 -8 3
-17 9 -20 13 -3 4 -11 2 -18 -6z"/>
<path d="M3764 945 c-10 -24 4 -45 28 -44 l23 0 -22 9 c-13 5 -23 14 -23 20 0
6 10 15 23 20 l22 9 -23 0 c-12 1 -25 -6 -28 -14z"/>
<path d="M3827 946 c-10 -26 4 -47 27 -44 15 2 21 10 21 28 0 29 -38 41 -48
16z m38 -16 c0 -7 -6 -15 -12 -17 -8 -3 -13 4 -13 17 0 13 5 20 13 18 6 -3 12
-11 12 -18z"/>
<path d="M3901 928 c1 -21 3 -26 6 -13 8 34 23 41 23 12 0 -15 5 -27 11 -27 6
0 9 12 7 28 -2 19 -9 28 -25 30 -20 3 -23 -1 -22 -30z"/>
<path d="M3971 928 c1 -21 3 -26 6 -13 8 34 23 41 23 12 0 -15 5 -27 11 -27 6
0 9 12 7 28 -2 19 -9 28 -25 30 -20 3 -23 -1 -22 -30z"/>
<path d="M4041 947 c-18 -22 -3 -47 28 -46 l26 1 -25 8 c-25 8 -25 8 -2 9 17
1 22 6 20 18 -4 23 -31 28 -47 10z"/>
<path d="M4114 945 c-10 -24 4 -45 28 -44 l23 0 -22 9 c-13 5 -23 14 -23 20 0
6 10 15 23 20 l22 9 -23 0 c-12 1 -25 -6 -28 -14z"/>
<path d="M4258 953 c6 -2 12 -13 12 -23 0 -10 -6 -21 -12 -23 -7 -3 1 -5 17
-5 17 0 24 2 18 5 -7 2 -13 16 -13 29 0 16 -5 24 -17 23 -11 0 -13 -3 -5 -6z"/>
<path d="M4317 946 c-10 -26 4 -47 27 -44 15 2 21 10 21 28 0 29 -38 41 -48
16z m38 -16 c0 -7 -6 -15 -12 -17 -8 -3 -13 4 -13 17 0 13 5 20 13 18 6 -3 12
-11 12 -18z"/>
<path d="M4391 928 c1 -21 3 -26 6 -13 8 34 23 41 23 12 0 -15 5 -27 11 -27 6
0 9 12 7 28 -2 19 -9 28 -25 30 -20 3 -23 -1 -22 -30z"/>
<path d="M4464 949 c-4 -7 1 -16 12 -22 17 -10 17 -11 -1 -18 -19 -7 -19 -8 2
-8 29 -1 40 19 18 31 -14 8 -15 12 -4 19 11 7 11 9 -3 9 -9 0 -20 -5 -24 -11z"/>
<path d="M252 305 c0 -27 2 -41 5 -30 8 34 23 41 23 12 0 -15 5 -27 10 -27 19
0 11 52 -9 57 -11 3 -22 12 -24 22 -3 9 -5 -6 -5 -34z"/>
<path d="M1182 338 c-20 -20 -13 -98 8 -98 5 0 3 14 -3 30 -9 24 -9 35 1 51
15 24 11 34 -6 17z"/>
<path d="M1302 305 c0 -27 2 -41 5 -30 8 34 23 41 23 12 0 -15 5 -27 10 -27
19 0 11 52 -9 57 -11 3 -22 12 -24 22 -3 9 -5 -6 -5 -34z"/>
<path d="M2142 305 c0 -27 2 -41 5 -30 8 34 23 41 23 12 0 -15 5 -27 10 -27
19 0 11 52 -9 57 -11 3 -22 12 -24 22 -3 9 -5 -6 -5 -34z"/>
<path d="M2435 293 c0 -45 2 -51 13 -36 15 21 15 53 -1 74 -10 13 -12 7 -12
-38z"/>
<path d="M2932 305 c0 -27 2 -41 5 -30 8 34 23 41 23 12 0 -15 5 -27 10 -27
19 0 11 52 -9 57 -11 3 -22 12 -24 22 -3 9 -5 -6 -5 -34z"/>
<path d="M3561 305 c0 -31 3 -45 8 -36 6 9 11 10 15 2 4 -6 12 -11 18 -11 7 0
6 6 -2 15 -10 12 -10 18 0 30 8 9 9 15 2 15 -6 0 -14 -6 -19 -12 -5 -9 -10 -3
-14 17 -5 25 -7 21 -8 -20z"/>
<path d="M4932 305 c0 -27 2 -41 5 -30 8 34 23 41 23 12 0 -15 5 -27 10 -27
19 0 11 52 -9 57 -11 3 -22 12 -24 22 -3 9 -5 -6 -5 -34z"/>
<path d="M5562 305 c0 -27 2 -41 5 -30 8 34 23 41 23 12 0 -15 5 -27 10 -27
19 0 11 52 -9 57 -11 3 -22 12 -24 22 -3 9 -5 -6 -5 -34z"/>
<path d="M183 324 c-4 -10 1 -22 10 -29 23 -16 21 -23 -5 -28 -20 -4 -20 -4 4
-6 36 -1 46 18 19 40 -20 17 -20 18 -4 28 17 10 17 10 0 11 -10 0 -20 -7 -24
-16z"/>
<path d="M542 316 c-28 -27 -20 -56 14 -56 21 0 24 4 24 40 0 46 -6 48 -38 16z
m18 -26 c0 -11 -4 -20 -10 -20 -5 0 -10 9 -10 20 0 11 5 20 10 20 6 0 10 -9
10 -20z"/>
<path d="M1592 316 c-28 -27 -20 -56 14 -56 21 0 24 4 24 40 0 46 -6 48 -38
16z m18 -26 c0 -11 -4 -20 -10 -20 -5 0 -10 9 -10 20 0 11 5 20 10 20 6 0 10
-9 10 -20z"/>
<path d="M2072 324 c-7 -8 -8 -14 -2 -14 5 0 10 -11 10 -25 0 -20 5 -25 23
-24 16 1 18 2 5 6 -10 2 -18 13 -18 24 0 11 7 19 18 20 13 0 14 2 2 6 -8 3
-17 9 -20 13 -3 4 -11 2 -18 -6z"/>
<path d="M2863 324 c-4 -10 1 -22 10 -29 23 -16 21 -23 -5 -28 -20 -4 -20 -4
4 -6 36 -1 46 18 19 40 -20 17 -20 18 -4 28 17 10 17 10 0 11 -10 0 -20 -7
-24 -16z"/>
<path d="M3222 316 c-28 -27 -20 -56 14 -56 21 0 24 4 24 40 0 46 -6 48 -38
16z m18 -26 c0 -11 -4 -20 -10 -20 -5 0 -10 9 -10 20 0 11 5 20 10 20 6 0 10
-9 10 -20z"/>
<path d="M3362 316 c-28 -27 -20 -56 14 -56 21 0 24 4 24 40 0 46 -6 48 -38
16z m18 -26 c0 -11 -4 -20 -10 -20 -5 0 -10 9 -10 20 0 11 5 20 10 20 6 0 10
-9 10 -20z"/>
<path d="M4863 324 c-4 -10 1 -22 10 -29 23 -16 21 -23 -5 -28 -20 -4 -20 -4
4 -6 36 -1 46 18 19 40 -20 17 -20 18 -4 28 17 10 17 10 0 11 -10 0 -20 -7
-24 -16z"/>
<path d="M5222 316 c-28 -27 -20 -56 14 -56 21 0 24 4 24 40 0 46 -6 48 -38
16z m18 -26 c0 -11 -4 -20 -10 -20 -5 0 -10 9 -10 20 0 11 5 20 10 20 6 0 10
-9 10 -20z"/>
<path d="M5492 324 c-7 -8 -8 -14 -2 -14 5 0 10 -11 10 -25 0 -20 5 -25 23
-24 16 1 18 2 5 6 -10 2 -18 13 -18 24 0 11 7 19 18 20 13 0 14 2 2 6 -8 3
-17 9 -20 13 -3 4 -11 2 -18 -6z"/>
<path d="M334 312 c18 -8 18 -9 3 -15 -27 -10 -21 -37 9 -37 22 0 25 4 22 28
-2 21 -9 28 -28 29 -21 2 -22 1 -6 -5z"/>
<path d="M390 288 c0 -15 5 -28 10 -28 6 0 10 11 10 25 0 26 15 34 23 13 3 -8
6 -6 6 4 1 13 -6 17 -24 16 -20 -2 -25 -8 -25 -30z"/>
<path d="M461 307 c-18 -22 -3 -47 28 -46 l26 1 -25 8 c-25 8 -25 8 -2 9 17 1
22 6 20 18 -4 23 -31 28 -47 10z"/>
<path d="M660 290 c0 -38 20 -40 21 -2 l1 27 8 -30 8 -30 2 30 2 30 8 -30 8
-30 1 33 c1 29 -2 32 -29 32 -27 0 -30 -3 -30 -30z"/>
<path d="M741 307 c-18 -22 -3 -47 28 -46 l26 1 -25 8 c-25 8 -25 8 -2 9 17 1
22 6 20 18 -4 23 -31 28 -47 10z"/>
<path d="M800 290 c0 -38 20 -40 21 -2 l1 27 8 -30 8 -30 2 30 2 30 8 -30 8
-30 1 33 c1 29 -2 32 -29 32 -27 0 -30 -3 -30 -30z"/>
<path d="M877 306 c-10 -26 4 -47 27 -44 15 2 21 10 21 28 0 29 -38 41 -48 16z
m38 -16 c0 -7 -6 -15 -12 -17 -8 -3 -13 4 -13 17 0 13 5 20 13 18 6 -3 12 -11
12 -18z"/>
<path d="M950 288 c0 -15 5 -28 10 -28 6 0 10 11 10 25 0 26 15 34 23 13 3 -8
6 -6 6 4 1 13 -6 17 -24 16 -20 -2 -25 -8 -25 -30z"/>
<path d="M1023 290 c9 -25 9 -33 -2 -39 -9 -6 -10 -11 -3 -15 12 -7 36 25 47
63 5 16 4 21 -4 17 -6 -4 -11 -15 -12 -24 0 -13 -3 -12 -11 6 -16 33 -28 27
-15 -8z"/>
<path d="M1234 309 c-4 -7 1 -16 12 -22 17 -10 17 -11 -1 -18 -19 -7 -19 -8 2
-8 29 -1 40 19 18 31 -14 8 -15 12 -4 19 11 7 11 9 -3 9 -9 0 -20 -5 -24 -11z"/>
<path d="M1384 312 c18 -8 18 -9 3 -15 -27 -10 -21 -37 9 -37 22 0 25 4 22 28
-2 21 -9 28 -28 29 -21 2 -22 1 -6 -5z"/>
<path d="M1440 288 c0 -15 5 -28 10 -28 6 0 10 11 10 25 0 26 15 34 23 13 3
-8 6 -6 6 4 1 13 -6 17 -24 16 -20 -2 -25 -8 -25 -30z"/>
<path d="M1511 307 c-18 -22 -3 -47 28 -46 l26 1 -25 8 c-25 8 -25 8 -2 9 17
1 22 6 20 18 -4 23 -31 28 -47 10z"/>
<path d="M1721 307 c-18 -22 -3 -47 28 -46 l26 1 -25 8 c-25 8 -25 8 -2 9 17
1 22 6 20 18 -4 23 -31 28 -47 10z"/>
<path d="M1791 290 c6 -16 15 -30 20 -30 11 0 32 50 24 58 -2 3 -9 -6 -13 -19
l-9 -24 -7 23 c-4 12 -11 22 -16 22 -5 0 -4 -13 1 -30z"/>
<path d="M1861 307 c-18 -22 -3 -47 28 -46 l26 1 -25 8 c-25 8 -25 8 -2 9 17
1 22 6 20 18 -4 23 -31 28 -47 10z"/>
<path d="M1930 288 c0 -15 5 -28 10 -28 6 0 10 11 10 25 0 26 15 34 23 13 3
-8 6 -6 6 4 1 13 -6 17 -24 16 -20 -2 -25 -8 -25 -30z"/>
<path d="M2003 290 c9 -25 9 -33 -2 -39 -9 -6 -10 -11 -3 -15 12 -7 36 25 47
63 5 16 4 21 -4 17 -6 -4 -11 -15 -12 -24 0 -13 -3 -12 -11 6 -16 33 -28 27
-15 -8z"/>
<path d="M2218 313 c6 -2 12 -13 12 -23 0 -10 -6 -21 -12 -23 -7 -3 1 -5 17
-5 17 0 24 2 18 5 -7 2 -13 16 -13 29 0 16 -5 24 -17 23 -11 0 -13 -3 -5 -6z"/>
<path d="M2281 288 c1 -21 3 -26 6 -13 8 34 23 41 23 12 0 -15 5 -27 11 -27 6
0 9 12 7 28 -2 19 -9 28 -25 30 -20 3 -23 -1 -22 -30z"/>
<path d="M2348 285 c-4 -39 12 -61 37 -51 23 9 18 36 -7 37 l-23 0 23 9 c30
13 29 40 -2 40 -20 0 -24 -6 -28 -35z m32 15 c0 -5 -4 -10 -10 -10 -5 0 -10 5
-10 10 0 6 5 10 10 10 6 0 10 -4 10 -10z m7 -46 c-3 -3 -12 -4 -19 -1 -8 3 -5
6 6 6 11 1 17 -2 13 -5z"/>
<path d="M3014 312 c18 -8 18 -9 3 -15 -27 -10 -21 -37 9 -37 22 0 25 4 22 28
-2 21 -9 28 -28 29 -21 2 -22 1 -6 -5z"/>
<path d="M3070 288 c0 -15 5 -28 10 -28 6 0 10 11 10 25 0 26 15 34 23 13 3
-8 6 -6 6 4 1 13 -6 17 -24 16 -20 -2 -25 -8 -25 -30z"/>
<path d="M3141 307 c-18 -22 -3 -47 28 -46 l26 1 -25 8 c-25 8 -25 8 -2 9 17
1 22 6 20 18 -4 23 -31 28 -47 10z"/>
<path d="M3428 313 c6 -2 12 -13 12 -23 0 -10 -6 -21 -12 -23 -7 -3 1 -5 17
-5 17 0 24 2 18 5 -7 2 -13 16 -13 29 0 16 -5 24 -17 23 -11 0 -13 -3 -5 -6z"/>
<path d="M3494 309 c-4 -7 1 -16 12 -22 17 -10 17 -11 -1 -18 -19 -7 -19 -8 2
-8 29 -1 40 19 18 31 -14 8 -15 12 -4 19 11 7 11 9 -3 9 -9 0 -20 -5 -24 -11z"/>
<path d="M5014 312 c18 -8 18 -9 3 -15 -27 -10 -21 -37 9 -37 22 0 25 4 22 28
-2 21 -9 28 -28 29 -21 2 -22 1 -6 -5z"/>
<path d="M5070 288 c0 -15 5 -28 10 -28 6 0 10 11 10 25 0 26 15 34 23 13 3
-8 6 -6 6 4 1 13 -6 17 -24 16 -20 -2 -25 -8 -25 -30z"/>
<path d="M5141 307 c-18 -22 -3 -47 28 -46 l26 1 -25 8 c-25 8 -25 8 -2 9 17
1 22 6 20 18 -4 23 -31 28 -47 10z"/>
<path d="M5351 288 c1 -21 3 -26 6 -13 8 34 23 41 23 12 0 -15 5 -27 11 -27 6
0 9 12 7 28 -2 19 -9 28 -25 30 -20 3 -23 -1 -22 -30z"/>
<path d="M5417 306 c-10 -26 4 -47 27 -44 15 2 21 10 21 28 0 29 -38 41 -48
16z m38 -16 c0 -7 -6 -15 -12 -17 -8 -3 -13 4 -13 17 0 13 5 20 13 18 6 -3 12
-11 12 -18z"/>
<path d="M5638 313 c6 -2 12 -13 12 -23 0 -10 -6 -21 -12 -23 -7 -3 1 -5 17
-5 17 0 24 2 18 5 -7 2 -13 16 -13 29 0 16 -5 24 -17 23 -11 0 -13 -3 -5 -6z"/>
<path d="M5701 288 c1 -21 3 -26 6 -13 8 34 23 41 23 12 0 -15 5 -27 11 -27 6
0 9 12 7 28 -2 19 -9 28 -25 30 -20 3 -23 -1 -22 -30z"/>
<path d="M5768 285 c-4 -39 12 -61 37 -51 23 9 18 36 -7 37 l-23 0 23 9 c30
13 29 40 -2 40 -20 0 -24 -6 -28 -35z m32 15 c0 -5 -4 -10 -10 -10 -5 0 -10 5
-10 10 0 6 5 10 10 10 6 0 10 -4 10 -10z m7 -46 c-3 -3 -12 -4 -19 -1 -8 3 -5
6 6 6 11 1 17 -2 13 -5z"/>
</g>
</svg>
